<svg xmlns="http://www.w3.org/2000/svg" viewBox="0 0 531.22 531.22"><defs><style>.cls-1{fill:#fff;}.cls-2{fill:#f7ee7f;}.cls-3{fill:#f5ed9c;}</style></defs><g id="圖層_2" data-name="圖層 2"><g id="sun"><circle class="cls-1" cx="265.37" cy="263.88" r="178.22"/><path class="cls-2" d="M139,137.54A180.23,180.23,0,1,1,335.09,432.2a181.33,181.33,0,0,1-139.71.63,180,180,0,0,1-31.58-16.94,179.13,179.13,0,0,1-50.08-50.68A178.21,178.21,0,0,1,97.28,333.5a180.79,180.79,0,0,1-12.51-69.62,183,183,0,0,1,14.91-68.64A183.56,183.56,0,0,1,139,137.54Zm.63.63a179.58,179.58,0,0,0-21.91,27.07,172.23,172.23,0,0,0-25.52,64.19,177.8,177.8,0,0,0,106.7,194.83A174.87,174.87,0,0,0,389.81,139.43,176.28,176.28,0,0,0,197.32,99.61,174.54,174.54,0,0,0,166.56,116,180.26,180.26,0,0,0,139.66,138.17Z"/><ellipse class="cls-1" cx="36.17" cy="265.61" rx="36.02" ry="5.34"/><path class="cls-3" d="M0,265.61a1.46,1.46,0,0,1,.65-1.07,5.27,5.27,0,0,1,1-.62,16.1,16.1,0,0,1,2.2-.8,44.39,44.39,0,0,1,4.53-1.06c3-.58,6.12-1,9.21-1.34,6.16-.73,12.36-1.07,18.57-1.2s12.42.07,18.63.54c3.1.25,6.2.56,9.31,1.08a45.4,45.4,0,0,1,4.65,1,16.8,16.8,0,0,1,2.36.85,5.89,5.89,0,0,1,1.23.75,3.59,3.59,0,0,1,.64.65,4.53,4.53,0,0,1,.27.54,2.55,2.55,0,0,1,.12.68,3.2,3.2,0,0,1-.11.69,5.28,5.28,0,0,1-.27.53,3.15,3.15,0,0,1-.63.67,6.05,6.05,0,0,1-1.22.78,17.18,17.18,0,0,1-2.35.91,43.67,43.67,0,0,1-4.65,1.13c-3.1.6-6.2,1-9.31,1.34a164.12,164.12,0,0,1-18.67.79A148.8,148.8,0,0,1,17.55,271c-3.08-.44-6.15-.94-9.2-1.6-1.52-.32-3-.71-4.52-1.18a15.07,15.07,0,0,1-2.19-.86,4.91,4.91,0,0,1-1-.64A1.48,1.48,0,0,1,0,265.61Zm.3,0a1.16,1.16,0,0,0,.55.82,4.59,4.59,0,0,0,1,.57,14.83,14.83,0,0,0,2.15.76,38.38,38.38,0,0,0,4.52.88,89,89,0,0,0,9.22.74c3.07.13,6.16.15,9.24.14s6.15,0,9.23-.07c6.15-.12,12.3-.27,18.41-.74,3.05-.23,6.11-.52,9.1-1a41.31,41.31,0,0,0,4.4-.93,13.67,13.67,0,0,0,2-.71,4.15,4.15,0,0,0,.75-.43c.11-.08.13-.13.18-.16s0,0,0,0a.13.13,0,0,0,0,.12.13.13,0,0,0,0,.11s0,0,0,0a.86.86,0,0,0-.17-.17,3.79,3.79,0,0,0-.74-.47,13.71,13.71,0,0,0-2-.76,38.52,38.52,0,0,0-4.39-1.06c-3-.57-6-1-9.1-1.27-6.12-.62-12.28-.9-18.45-1s-12.35,0-18.52.33c-3.08.22-6.16.5-9.2,1a41,41,0,0,0-4.52,1,16.36,16.36,0,0,0-2.15.81,5.4,5.4,0,0,0-.95.59A1.22,1.22,0,0,0,.3,265.61Z"/><ellipse class="cls-1" cx="495.05" cy="265.61" rx="36.02" ry="5.34"/><path class="cls-3" d="M531.22,265.61a1.46,1.46,0,0,1-.65,1.07,5.27,5.27,0,0,1-1,.62,16.59,16.59,0,0,1-2.2.8,44.39,44.39,0,0,1-4.53,1.06c-3.05.58-6.12,1-9.21,1.34-6.16.72-12.36,1.07-18.57,1.2s-12.42-.07-18.63-.54c-3.1-.25-6.21-.56-9.31-1.08a46.17,46.17,0,0,1-4.66-1,16.25,16.25,0,0,1-2.35-.85,5.64,5.64,0,0,1-1.23-.75,3.37,3.37,0,0,1-.64-.66,3.76,3.76,0,0,1-.27-.53,3,3,0,0,1-.13-.68,4,4,0,0,1,.12-.69,5.28,5.28,0,0,1,.27-.53,3.15,3.15,0,0,1,.63-.67,6.05,6.05,0,0,1,1.22-.78,16.69,16.69,0,0,1,2.35-.91,43.67,43.67,0,0,1,4.65-1.13c3.1-.6,6.2-1,9.31-1.34a164.12,164.12,0,0,1,18.67-.79,148.8,148.8,0,0,1,18.62,1.47c3.08.44,6.15.94,9.2,1.6,1.52.32,3,.71,4.52,1.18a16.24,16.24,0,0,1,2.19.85,5.42,5.42,0,0,1,1,.65A1.48,1.48,0,0,1,531.22,265.61Zm-.3,0a1.2,1.2,0,0,0-.55-.83,4.56,4.56,0,0,0-1-.56,14.83,14.83,0,0,0-2.15-.76,40.3,40.3,0,0,0-4.53-.89c-3.05-.42-6.13-.62-9.21-.74s-6.16-.14-9.24-.13-6.15,0-9.23.07c-6.15.12-12.3.27-18.41.74-3.05.23-6.11.52-9.1,1a41.31,41.31,0,0,0-4.4.93,13.67,13.67,0,0,0-2,.71,3.63,3.63,0,0,0-.75.43,1.07,1.07,0,0,0-.18.16s0,0,0,0a.13.13,0,0,0,0-.12.09.09,0,0,0,0-.11s0,0,0,0a.86.86,0,0,0,.17.17,4.33,4.33,0,0,0,.74.47,13.71,13.71,0,0,0,2,.76,40.75,40.75,0,0,0,4.39,1.06c3,.57,6,1,9.1,1.27,6.12.62,12.28.9,18.45,1s12.35,0,18.52-.33c3.08-.23,6.16-.5,9.2-1a41,41,0,0,0,4.52-1,15.71,15.71,0,0,0,2.14-.81,5.18,5.18,0,0,0,1-.6A1.19,1.19,0,0,0,530.92,265.61Z"/><ellipse class="cls-1" cx="110.6" cy="407.94" rx="18.01" ry="4.27" transform="translate(-256.07 197.69) rotate(-45)"/><path class="cls-3" d="M98,420.57c.52.49,1.42.33,2.15.12a11.26,11.26,0,0,0,2.17-.95A28.26,28.26,0,0,0,106.2,417a76.39,76.39,0,0,0,6.88-6.58,65.33,65.33,0,0,0,6.06-7.28,31.33,31.33,0,0,0,2.42-4,10.93,10.93,0,0,0,.81-2,3.46,3.46,0,0,0,.14-.88c0-.25-.09-.3,0-.23s0,0-.23,0a3.58,3.58,0,0,0-.85.19,11.24,11.24,0,0,0-1.94.91,31.43,31.43,0,0,0-3.77,2.62c-1.23.94-2.41,2-3.58,3s-2.33,2.09-3.47,3.18-2.28,2.16-3.41,3.26-2.26,2.21-3.31,3.38A26.79,26.79,0,0,0,99,416.36a10.76,10.76,0,0,0-1,2.09A2.26,2.26,0,0,0,98,420.57Zm-.21.21a1.67,1.67,0,0,1-.44-1.22,5.09,5.09,0,0,1,.18-1.24,14.14,14.14,0,0,1,.84-2.31,41.61,41.61,0,0,1,2.29-4.33,44.88,44.88,0,0,1,5.89-7.82,50.65,50.65,0,0,1,7.4-6.44,35.33,35.33,0,0,1,4.29-2.58,13.67,13.67,0,0,1,2.47-1,6,6,0,0,1,1.51-.24,2.79,2.79,0,0,1,2,.74,2.62,2.62,0,0,1,.67,2,5.4,5.4,0,0,1-.29,1.48,13,13,0,0,1-1.08,2.38,32.76,32.76,0,0,1-2.78,4.1,65.73,65.73,0,0,1-6.56,7.18,58.55,58.55,0,0,1-7.57,6,41.34,41.34,0,0,1-4.15,2.48,13.31,13.31,0,0,1-2.23.94,5.4,5.4,0,0,1-1.21.23A1.69,1.69,0,0,1,97.76,420.78Z"/><ellipse class="cls-1" cx="423.96" cy="399.45" rx="4.27" ry="18.01" transform="translate(-158.28 416.78) rotate(-45)"/><path class="cls-3" d="M436.59,412.08a2.31,2.31,0,0,0,.12-2.15,11.61,11.61,0,0,0-.95-2.17,27.11,27.11,0,0,0-2.73-3.91,75.19,75.19,0,0,0-6.58-6.89,66.35,66.35,0,0,0-7.28-6,32.62,32.62,0,0,0-4-2.43,12,12,0,0,0-2-.81,4,4,0,0,0-.88-.14c-.25,0-.31.09-.23,0s0,0,0,.24a3.51,3.51,0,0,0,.19.84,10.9,10.9,0,0,0,.91,1.94,31.43,31.43,0,0,0,2.62,3.77c.94,1.24,2,2.42,3,3.59s2.09,2.33,3.17,3.47,2.17,2.28,3.27,3.4,2.2,2.26,3.38,3.32a27.56,27.56,0,0,0,3.73,2.92,12,12,0,0,0,2.09,1.05A2.32,2.32,0,0,0,436.59,412.08Zm.21.21a1.71,1.71,0,0,1-1.22.44,4.65,4.65,0,0,1-1.24-.19,13.27,13.27,0,0,1-2.31-.84,39.71,39.71,0,0,1-4.33-2.28,45.38,45.38,0,0,1-7.82-5.89,50.73,50.73,0,0,1-6.44-7.41,34.58,34.58,0,0,1-2.58-4.29,13.87,13.87,0,0,1-1-2.46,6.2,6.2,0,0,1-.24-1.51,2.76,2.76,0,0,1,.74-2,2.68,2.68,0,0,1,2-.68,5.89,5.89,0,0,1,1.48.29,14,14,0,0,1,2.38,1.08,33.88,33.88,0,0,1,4.1,2.78,67.81,67.81,0,0,1,7.18,6.56,59.24,59.24,0,0,1,6,7.57,42.49,42.49,0,0,1,2.48,4.15,13.77,13.77,0,0,1,.94,2.24,5.4,5.4,0,0,1,.23,1.21A1.69,1.69,0,0,1,436.8,412.29Z"/><ellipse class="cls-1" cx="117.66" cy="123.96" rx="4.27" ry="18.01" transform="translate(-53.19 119.51) rotate(-45)"/><path class="cls-3" d="M105,111.33a2.31,2.31,0,0,0-.12,2.15,11.61,11.61,0,0,0,1,2.17,27.11,27.11,0,0,0,2.73,3.91,75.19,75.19,0,0,0,6.58,6.89,66.35,66.35,0,0,0,7.28,6,33.41,33.41,0,0,0,4,2.43,12.34,12.34,0,0,0,2,.81,4,4,0,0,0,.88.14c.25,0,.31-.09.24,0s0,0,0-.24a3.51,3.51,0,0,0-.19-.84,10.9,10.9,0,0,0-.91-1.94,31.43,31.43,0,0,0-2.62-3.77c-.94-1.23-2-2.42-3-3.59s-2.09-2.33-3.17-3.47-2.17-2.28-3.27-3.4-2.2-2.26-3.38-3.32a27.74,27.74,0,0,0-3.73-2.92,12,12,0,0,0-2.09-1A2.32,2.32,0,0,0,105,111.33Zm-.21-.21a1.71,1.71,0,0,1,1.22-.44,4.65,4.65,0,0,1,1.24.19,13.27,13.27,0,0,1,2.31.84,40.8,40.8,0,0,1,4.34,2.28,45.31,45.31,0,0,1,7.81,5.89,49.55,49.55,0,0,1,6.44,7.41,34.58,34.58,0,0,1,2.58,4.29,13.87,13.87,0,0,1,1,2.46,6.2,6.2,0,0,1,.24,1.51,2.72,2.72,0,0,1-.74,2,2.68,2.68,0,0,1-2,.68,5.72,5.72,0,0,1-1.47-.29,13.75,13.75,0,0,1-2.39-1.08,33.88,33.88,0,0,1-4.1-2.78,67.81,67.81,0,0,1-7.18-6.56,59.24,59.24,0,0,1-6-7.57,42.49,42.49,0,0,1-2.48-4.15,13.73,13.73,0,0,1-.93-2.24,4.9,4.9,0,0,1-.24-1.21A1.69,1.69,0,0,1,104.82,111.12Z"/><ellipse class="cls-1" cx="396.55" cy="107.17" rx="18.01" ry="4.27" transform="translate(40.37 311.79) rotate(-45)"/><path class="cls-3" d="M409.18,94.54a2.37,2.37,0,0,0-2.15-.12,11.61,11.61,0,0,0-2.17,1A27.11,27.11,0,0,0,401,98.1a75.19,75.19,0,0,0-6.89,6.58A66.35,66.35,0,0,0,388,112a33.41,33.41,0,0,0-2.43,4,12.34,12.34,0,0,0-.81,2,4,4,0,0,0-.14.88c0,.25.09.31,0,.24s0,0,.24,0a4.17,4.17,0,0,0,.84-.2,11.32,11.32,0,0,0,1.95-.91,31,31,0,0,0,3.76-2.62c1.24-.94,2.42-2,3.59-3s2.33-2.09,3.47-3.17,2.28-2.16,3.4-3.26,2.26-2.21,3.32-3.39a27.47,27.47,0,0,0,2.92-3.72,11.77,11.77,0,0,0,1.05-2.1A2.32,2.32,0,0,0,409.18,94.54Zm.21-.21a1.72,1.72,0,0,1,.44,1.22,4.65,4.65,0,0,1-.19,1.24,12.5,12.5,0,0,1-.84,2.31,39.85,39.85,0,0,1-2.28,4.34,45.31,45.31,0,0,1-5.89,7.81,49.55,49.55,0,0,1-7.41,6.44,34.58,34.58,0,0,1-4.29,2.58,14.35,14.35,0,0,1-2.46,1,6.22,6.22,0,0,1-1.51.23,2.72,2.72,0,0,1-2-.74,2.68,2.68,0,0,1-.68-2,5.72,5.72,0,0,1,.29-1.47,13.75,13.75,0,0,1,1.08-2.39,34.69,34.69,0,0,1,2.78-4.1,68.8,68.8,0,0,1,6.56-7.18,60.13,60.13,0,0,1,7.57-6,44.57,44.57,0,0,1,4.15-2.48,13.73,13.73,0,0,1,2.24-.93,4.47,4.47,0,0,1,1.21-.23A1.64,1.64,0,0,1,409.39,94.33Z"/><ellipse class="cls-1" cx="258.29" cy="36.17" rx="5.34" ry="36.02"/><path class="cls-3" d="M258.29,0a1.44,1.44,0,0,1,1.07.65,5.27,5.27,0,0,1,.62,1,14.87,14.87,0,0,1,.8,2.2,44.39,44.39,0,0,1,1.06,4.53c.58,3,1,6.12,1.34,9.21.73,6.16,1.07,12.36,1.2,18.57s-.07,12.42-.54,18.63c-.25,3.1-.56,6.2-1.08,9.31a40.63,40.63,0,0,1-1,4.65,16.8,16.8,0,0,1-.85,2.36,5.89,5.89,0,0,1-.75,1.23,3.59,3.59,0,0,1-.65.64,5.28,5.28,0,0,1-.53.27,2.7,2.7,0,0,1-.69.12,3,3,0,0,1-.68-.11,4.53,4.53,0,0,1-.54-.27,3.15,3.15,0,0,1-.67-.63,6.05,6.05,0,0,1-.78-1.22,17.18,17.18,0,0,1-.91-2.35,43.67,43.67,0,0,1-1.13-4.65c-.6-3.1-1-6.2-1.34-9.31a161.84,161.84,0,0,1-.78-18.67,148.78,148.78,0,0,1,1.46-18.62c.44-3.08,1-6.15,1.6-9.2.32-1.52.71-3,1.18-4.52a15.07,15.07,0,0,1,.86-2.19,4.91,4.91,0,0,1,.64-1A1.5,1.5,0,0,1,258.29,0Zm0,.3a1.16,1.16,0,0,0-.82.55,5.07,5.07,0,0,0-.57,1A16.13,16.13,0,0,0,256.14,4a38.38,38.38,0,0,0-.88,4.52,91.87,91.87,0,0,0-.74,9.22c-.13,3.07-.15,6.16-.14,9.24s0,6.15.08,9.23c.11,6.15.26,12.3.74,18.41.22,3.05.52,6.11,1,9.1a43.94,43.94,0,0,0,.93,4.4,15,15,0,0,0,.71,2,4.15,4.15,0,0,0,.43.75c.08.11.13.13.16.18s0,0,0,0a.13.13,0,0,0-.12,0,.13.13,0,0,0-.11,0s0,0,0,0a.83.83,0,0,0,.18-.17,4.34,4.34,0,0,0,.46-.74,15,15,0,0,0,.77-2,40.74,40.74,0,0,0,1.05-4.39c.57-3,1-6,1.28-9.1.61-6.12.89-12.28,1-18.45s0-12.35-.33-18.52c-.22-3.08-.5-6.16-1-9.2a41,41,0,0,0-1-4.52,16.36,16.36,0,0,0-.81-2.15,4.87,4.87,0,0,0-.59-.95A1.22,1.22,0,0,0,258.29.3Z"/><ellipse class="cls-1" cx="258.29" cy="495.05" rx="5.34" ry="36.02"/><path class="cls-3" d="M258.29,531.22a1.46,1.46,0,0,1-1.07-.65,5.27,5.27,0,0,1-.62-1,16.59,16.59,0,0,1-.8-2.2c-.43-1.49-.77-3-1.05-4.53-.59-3.05-1-6.12-1.35-9.21-.72-6.16-1.07-12.36-1.19-18.57s.06-12.42.54-18.63c.24-3.1.56-6.21,1.07-9.31a43.64,43.64,0,0,1,1-4.66,15.14,15.14,0,0,1,.85-2.35,6,6,0,0,1,.74-1.23,3.37,3.37,0,0,1,.66-.64,5.28,5.28,0,0,1,.53-.27,3,3,0,0,1,.68-.13,3.82,3.82,0,0,1,.69.12q.27.12.54.27a3.72,3.72,0,0,1,.67.63,6.45,6.45,0,0,1,.77,1.22,14.56,14.56,0,0,1,.91,2.35,43.67,43.67,0,0,1,1.13,4.65c.6,3.1,1,6.2,1.35,9.31a166.45,166.45,0,0,1,.78,18.67,150.7,150.7,0,0,1-1.46,18.62c-.45,3.08-.95,6.15-1.61,9.2a44.83,44.83,0,0,1-1.18,4.52,16.24,16.24,0,0,1-.85,2.19,5.42,5.42,0,0,1-.65,1A1.46,1.46,0,0,1,258.29,531.22Zm0-.3a1.2,1.2,0,0,0,.83-.55,4.56,4.56,0,0,0,.56-1,14.83,14.83,0,0,0,.76-2.15,40.3,40.3,0,0,0,.89-4.53c.42-3.05.62-6.13.74-9.21s.14-6.16.13-9.24,0-6.15-.07-9.23c-.11-6.15-.27-12.3-.74-18.41-.23-3.05-.52-6.11-1-9.1a41.31,41.31,0,0,0-.93-4.4,15,15,0,0,0-.7-2,4.13,4.13,0,0,0-.44-.75,1.07,1.07,0,0,0-.16-.18h0a.1.1,0,0,0,.11,0,.11.11,0,0,0,.12,0s0,0,0,0a.86.86,0,0,0-.17.17,4.33,4.33,0,0,0-.47.74,15,15,0,0,0-.76,2A40.75,40.75,0,0,0,256,467.5c-.57,3-1,6-1.27,9.1-.62,6.12-.9,12.28-1,18.45s0,12.35.32,18.52c.23,3.08.5,6.16,1,9.2a40.94,40.94,0,0,0,1,4.52,15.71,15.71,0,0,0,.81,2.14,5.18,5.18,0,0,0,.6,1A1.19,1.19,0,0,0,258.29,530.92Z"/></g></g></svg>