<svg xmlns="http://www.w3.org/2000/svg" viewBox="0 0 502.56 344.26"><defs><style>.cls-1{fill:#bac8ca;}.cls-2{fill:#325761;}</style></defs><g id="圖層_2" data-name="圖層 2"><g id="圖層_4" data-name="圖層 4"><path class="cls-1" d="M5,302.16C-4.83,254.73-4,189,52.45,148.38c7.68-5.52,7.54-25.65,11.14-34.85C70.47,96,88.67,67,135.3,56.53A45.92,45.92,0,0,0,161,40.29c19.05-23.78,65.1-65.92,124-14.53,11.39,9.94,26.36,13.67,40.53,9.72,28.69-8,75.87-9.73,86.16,59.85,2.22,15,10.41,28.24,22.55,35.85,34.25,21.47,95,76.63,50.1,181.44-7.6,17.77-24.13,29.05-42.2,29.05H50.55C28.72,341.67,9.85,325.24,5,302.16Z"/><path class="cls-2" d="M4.8,302.22A220.69,220.69,0,0,1,0,258.52,159.33,159.33,0,0,1,5.55,215a123.26,123.26,0,0,1,18.9-39.57A118.58,118.58,0,0,1,39,158.86c2.67-2.53,5.46-4.94,8.34-7.23l2.17-1.7,2.22-1.64a11.21,11.21,0,0,0,3.45-3.94,38.21,38.21,0,0,0,3.41-10.24c.76-3.56,1.32-7.18,2-10.8.32-1.81.65-3.62,1.07-5.42a33.7,33.7,0,0,1,1.64-5.35,87.84,87.84,0,0,1,4.74-10,90,90,0,0,1,30.14-32A105.64,105.64,0,0,1,118,60.65c3.46-1.3,7-2.48,10.53-3.46s7.22-1.69,10.57-2.82A44.43,44.43,0,0,0,157,43c.64-.63,1.21-1.31,1.82-2S160,39.7,160.57,39c1.15-1.44,2.34-2.86,3.55-4.26,2.43-2.78,4.95-5.49,7.6-8.07A112.13,112.13,0,0,1,189,12.69,82.61,82.61,0,0,1,209.11,3.1,66.86,66.86,0,0,1,231.24,0,70.38,70.38,0,0,1,253.15,4.4,94.22,94.22,0,0,1,273,14.62c3.1,2.05,6.07,4.27,8.95,6.6,1.46,1.14,2.86,2.38,4.27,3.55.69.56,1.36,1.13,2.06,1.68L290.39,28a42.77,42.77,0,0,0,19.72,7.23,40.09,40.09,0,0,0,10.55-.34,47.1,47.1,0,0,0,5.19-1.17c1.79-.49,3.6-.94,5.41-1.35A91.88,91.88,0,0,1,353.47,30a60.65,60.65,0,0,1,22,4.44,51.35,51.35,0,0,1,18.42,13.05,67.67,67.67,0,0,1,11.92,19A108.13,108.13,0,0,1,412.28,88c.76,3.62,1.21,7.39,1.94,10.78a52.19,52.19,0,0,0,3.33,10.05A47.81,47.81,0,0,0,430,125.64l1,.86,1.05.79,1.05.79,1.1.73,1.09.73,1.18.75,2.33,1.51q4.65,3.06,9.09,6.41a149.48,149.48,0,0,1,31.23,31.6A122.84,122.84,0,0,1,498.33,210a130.22,130.22,0,0,1,3.76,44.38,165.27,165.27,0,0,1-3.34,22.05,203.29,203.29,0,0,1-6.06,21.42c-1.19,3.5-2.5,7-3.86,10.42l-2.12,5.13a57.41,57.41,0,0,1-2.51,5.18,51,51,0,0,1-15.29,17.1,47.09,47.09,0,0,1-21.48,8.26,49.2,49.2,0,0,1-5.79.32H425.15l-88-.09q-44-.15-88-.42l-88-.74-88-.72-22-.13a44.83,44.83,0,0,1-11-1.28,45.43,45.43,0,0,1-10.33-4,48,48,0,0,1-16.45-14.54A53,53,0,0,1,4.8,302.22Zm.49-.11A52.39,52.39,0,0,0,14,322a47.23,47.23,0,0,0,16.29,14.23,43,43,0,0,0,21,4.95l22-.13,88-.72,88-.74q44-.31,88-.42l88-.09h16.49a46.61,46.61,0,0,0,5.19-.26A42,42,0,0,0,466,331.5a46.08,46.08,0,0,0,13.82-15.36c.85-1.53,1.6-3.09,2.3-4.71l2.09-5c1.34-3.37,2.63-6.76,3.81-10.19a196.87,196.87,0,0,0,6-20.85A159.78,159.78,0,0,0,497.41,254,125.9,125.9,0,0,0,494,211.13a118.38,118.38,0,0,0-18.31-38.86,145.23,145.23,0,0,0-30.21-30.88c-2.88-2.21-5.84-4.3-8.85-6.31l-2.28-1.48-1.14-.73-1.19-.8-1.19-.8-1.14-.87-1.14-.87-1.08-.93a51.51,51.51,0,0,1-13.41-18.26,55.65,55.65,0,0,1-3.52-10.8c-.8-3.78-1.18-7.31-1.91-10.87A104.48,104.48,0,0,0,402.52,68a64,64,0,0,0-11.2-18.12,47.84,47.84,0,0,0-17.13-12.24,57.4,57.4,0,0,0-20.81-4.28A88.53,88.53,0,0,0,332,35.54c-1.77.39-3.52.82-5.27,1.29a53.62,53.62,0,0,1-5.53,1.22,43.73,43.73,0,0,1-11.37.31,45.7,45.7,0,0,1-21.11-7.84l-2.3-1.66c-.74-.59-1.46-1.2-2.19-1.8-1.4-1.18-2.75-2.38-4.17-3.51-2.81-2.29-5.71-4.47-8.71-6.48a91.37,91.37,0,0,0-19.15-10,67.62,67.62,0,0,0-21-4.28A64,64,0,0,0,209.9,5.65a80,80,0,0,0-19.51,9.2,111.39,111.39,0,0,0-16.95,13.56c-2.62,2.51-5.12,5.15-7.52,7.88-1.2,1.36-2.38,2.75-3.53,4.15-.56.7-1.19,1.43-1.79,2.15s-1.25,1.4-1.92,2a46.82,46.82,0,0,1-19,11.78c-1.77.58-3.65,1-5.4,1.43s-3.54.84-5.29,1.33c-3.51.94-7,2.08-10.38,3.33a104.32,104.32,0,0,0-19.52,9.6,88.37,88.37,0,0,0-29.88,31.12A86.82,86.82,0,0,0,64.5,113a51.13,51.13,0,0,0-2.74,10.5c-.67,3.59-1.26,7.22-2.07,10.82a39.31,39.31,0,0,1-3.61,10.51,12.31,12.31,0,0,1-3.76,4.23l-2.21,1.61-2.17,1.67q-4.3,3.39-8.32,7.13A118.91,118.91,0,0,0,25,175.82,120.72,120.72,0,0,0,6,215.09,159.15,159.15,0,0,0,.5,258.52,219.59,219.59,0,0,0,5.29,302.11Z"/></g></g></svg>