<svg xmlns="http://www.w3.org/2000/svg" viewBox="0 0 503.59 442.42"><defs><style>.cls-1{fill:#fff;}.cls-2{fill:#609da0;}.cls-3{fill:#bac8ca;}.cls-4{fill:#325761;}</style></defs><g id="圖層_2" data-name="圖層 2"><g id="圖層_7" data-name="圖層 7"><path class="cls-1" d="M109.07,342.9c4.47-12.94,8.67-20,11.34-23.66a3.75,3.75,0,0,1,5.87-.35,60.53,60.53,0,0,1,13.58,23.8c5.37,19-4.58,34.67-16.56,34.67S102.65,361.5,109.07,342.9Z"/><path class="cls-2" d="M108.93,342.85A154.91,154.91,0,0,1,116,325.76q1-2.08,2.22-4.09c.39-.66.81-1.32,1.23-2,.24-.32.41-.63.69-1a4.52,4.52,0,0,1,.95-.9,4.31,4.31,0,0,1,5,.07,15.66,15.66,0,0,1,1.73,1.73c.52.57,1,1.16,1.54,1.76a61.77,61.77,0,0,1,9.67,16c.6,1.45,1.12,2.93,1.59,4.43.26.74.41,1.52.61,2.29s.42,1.53.54,2.31a37.19,37.19,0,0,1,.59,4.71c0,.8.15,1.59.11,2.39l-.07,2.39a34.19,34.19,0,0,1-2,9.38,25.06,25.06,0,0,1-5.17,8.25,17.61,17.61,0,0,1-8.6,5,12,12,0,0,1-2.54.35,11.07,11.07,0,0,1-2.57-.06,15.06,15.06,0,0,1-4.88-1.51,17.65,17.65,0,0,1-7-6.93,25.34,25.34,0,0,1-3-9.1A39.72,39.72,0,0,1,108.93,342.85Zm.28.1a32.75,32.75,0,0,0-1,18,23.89,23.89,0,0,0,3.53,8.07A16.06,16.06,0,0,0,118,374.6a11.81,11.81,0,0,0,3.92,1.12,8.19,8.19,0,0,0,2,0,9.2,9.2,0,0,0,2-.29,14.86,14.86,0,0,0,7.18-4.06,22.15,22.15,0,0,0,4.8-7.16,31.33,31.33,0,0,0,2.08-8.57l.12-2.23a20.75,20.75,0,0,0,0-2.23,37.23,37.23,0,0,0-.45-4.46c-.1-.74-.31-1.46-.46-2.2s-.29-1.47-.53-2.19c-.41-1.45-.88-2.89-1.42-4.3a60,60,0,0,0-9-15.75c-.47-.6-.94-1.19-1.43-1.78a14.74,14.74,0,0,0-1.46-1.6,3.09,3.09,0,0,0-3.62-.19,5.58,5.58,0,0,0-1.43,1.53c-.45.61-.89,1.24-1.32,1.87-.84,1.28-1.65,2.58-2.4,3.92-1.5,2.68-2.85,5.44-4.08,8.26S110.2,340,109.21,343Z"/><path class="cls-1" d="M199.18,391.59c3-12.59,5.77-19.5,7.55-23,1-1.94,2.79-2.09,3.9-.34a68.76,68.76,0,0,1,9.05,23.15c3.57,18.47-3.05,33.73-11,33.73S194.91,409.68,199.18,391.59Z"/><path class="cls-2" d="M199,391.55c.65-2.66,1.34-5.32,2.06-8s1.45-5.3,2.33-7.91a56.51,56.51,0,0,1,3-7.76,3,3,0,0,1,2-1.49,2.62,2.62,0,0,1,2.38,1,5.71,5.71,0,0,1,.38.48l.28.43.56.88c.37.59.72,1.19,1.07,1.79a70.14,70.14,0,0,1,6.39,15.34,57.61,57.61,0,0,1,2.35,16.54,44.21,44.21,0,0,1-.87,8.41,30.77,30.77,0,0,1-2.76,8.15,18.58,18.58,0,0,1-2.51,3.68,11.06,11.06,0,0,1-3.77,2.86,7.93,7.93,0,0,1-5,.51,9.31,9.31,0,0,1-4.23-2.41,18.13,18.13,0,0,1-4.31-7.7,34.79,34.79,0,0,1-1.29-8.36A60.82,60.82,0,0,1,199,391.55Zm.29.07a43.73,43.73,0,0,0-.6,16.23,33.75,33.75,0,0,0,2.05,7.7,17.18,17.18,0,0,0,4,6.32,5.24,5.24,0,0,0,5.91,1.23,11.55,11.55,0,0,0,4.93-5.1c2.52-4.49,3.58-9.89,3.83-15.2a55.42,55.42,0,0,0-1.83-16,69.09,69.09,0,0,0-5.82-15.13c-.31-.6-.64-1.2-1-1.79l-.51-.88-.25-.44a4.15,4.15,0,0,0-.24-.34,1.37,1.37,0,0,0-1.21-.62,1.82,1.82,0,0,0-1.22.89,59.64,59.64,0,0,0-3.38,7.37A111.91,111.91,0,0,0,199.33,391.62Z"/><path class="cls-1" d="M318.62,335.89c2.91-12.94,5.64-20,7.38-23.66.95-2,2.73-2.16,3.81-.35a72.55,72.55,0,0,1,8.84,23.8c3.49,19-3,34.67-10.77,34.67S314.44,354.48,318.62,335.89Z"/><path class="cls-2" d="M318.48,335.86c.63-2.73,1.3-5.44,2-8.15s1.41-5.41,2.25-8.08a62.08,62.08,0,0,1,2.93-8,3,3,0,0,1,1.93-1.61,2.55,2.55,0,0,1,2.44,1,5.74,5.74,0,0,1,.36.5l.28.45.55.91c.36.6.71,1.22,1,1.84a74.39,74.39,0,0,1,6.23,15.73,62,62,0,0,1,2.31,16.85,48.44,48.44,0,0,1-.8,8.56,33.54,33.54,0,0,1-2.61,8.33,20.19,20.19,0,0,1-2.42,3.83,11.64,11.64,0,0,1-3.71,3.06,8.75,8.75,0,0,1-2.49.74,7.57,7.57,0,0,1-2.64-.17,9,9,0,0,1-4.23-2.6,18.92,18.92,0,0,1-4.12-7.95,37.09,37.09,0,0,1-1.2-8.52A65.63,65.63,0,0,1,318.48,335.86Zm.29.06a47,47,0,0,0-.58,16.55,36.7,36.7,0,0,0,2,7.9,18.26,18.26,0,0,0,3.89,6.61,6.11,6.11,0,0,0,2.83,1.7,4.85,4.85,0,0,0,1.52.08,5.28,5.28,0,0,0,1.51-.47c2-1,3.65-3.1,4.83-5.4a37.52,37.52,0,0,0,3.67-15.61,60.11,60.11,0,0,0-1.8-16.32,72.36,72.36,0,0,0-5.67-15.52c-.3-.62-.62-1.24-.95-1.84l-.49-.91-.25-.46c-.09-.12-.15-.25-.24-.35a1.29,1.29,0,0,0-1.19-.63,1.88,1.88,0,0,0-1.19,1,64.05,64.05,0,0,0-3.3,7.6A117.58,117.58,0,0,0,318.77,335.92Z"/><path class="cls-1" d="M398.3,406.41c3.66-12.94,7.1-20,9.28-23.66a2.74,2.74,0,0,1,4.8-.35,64.6,64.6,0,0,1,11.13,23.8c4.39,19-3.76,34.67-13.56,34.67S393,425,398.3,406.41Z"/><path class="cls-2" d="M398.16,406.37q1.23-4.22,2.6-8.38c.9-2.79,1.87-5.56,3-8.28q.81-2,1.74-4c.32-.67.64-1.33,1-2a9.41,9.41,0,0,1,1.21-2,3.22,3.22,0,0,1,4.76-.22c.16.15.3.31.44.47l.34.45.68.88c.44.59.87,1.2,1.29,1.81A65.88,65.88,0,0,1,423.06,401a58,58,0,0,1,2.21,8.65,46.4,46.4,0,0,1,.61,9,38.49,38.49,0,0,1-1.31,9,27.84,27.84,0,0,1-3.79,8.4,15.34,15.34,0,0,1-7.5,6,10.83,10.83,0,0,1-5.06.36,11.26,11.26,0,0,1-4.62-2,17.32,17.32,0,0,1-5.59-7.56,30.14,30.14,0,0,1-2-8.85A49.84,49.84,0,0,1,398.16,406.37Zm.29.08a38.81,38.81,0,0,0-.82,17.23,28.86,28.86,0,0,0,2.65,8,16.07,16.07,0,0,0,5,6.13,7.9,7.9,0,0,0,7,1.1,12.46,12.46,0,0,0,6-4.71c3.24-4.41,4.77-10.11,5.11-15.74a43.56,43.56,0,0,0-.36-8.53,55.47,55.47,0,0,0-1.91-8.38,64.09,64.09,0,0,0-7.27-15.66c-.39-.61-.78-1.22-1.19-1.81l-.62-.89a6.28,6.28,0,0,0-.6-.78,2,2,0,0,0-1.5-.67,2.26,2.26,0,0,0-1.54.7,11.53,11.53,0,0,0-1.15,1.71c-.37.62-.72,1.25-1.07,1.89-.69,1.28-1.34,2.58-2,3.9-1.19,2.66-2.3,5.37-3.27,8.12S399.22,403.64,398.45,406.45Z"/><path class="cls-1" d="M259.88,349.6c1.72-7.79,3.33-12.07,4.35-14.25.57-1.2,1.62-1.3,2.26-.21a44.34,44.34,0,0,1,5.22,14.33c2.07,11.43-1.76,20.88-6.36,20.88S257.41,360.8,259.88,349.6Z"/><path class="cls-2" d="M259.73,349.57c.79-3.27,1.55-6.53,2.45-9.78a36.44,36.44,0,0,1,1.64-4.85,2,2,0,0,1,1.28-1.13,1.77,1.77,0,0,1,1.73.67,4,4,0,0,1,.24.33l.17.27.33.55c.22.36.44.73.65,1.1a46.25,46.25,0,0,1,3.79,9.51,38.07,38.07,0,0,1,1.46,10.22,25.41,25.41,0,0,1-1.94,10.39l-.29.63-.36.61-.38.61-.45.59a7.46,7.46,0,0,1-2.37,2,5.33,5.33,0,0,1-3.53.4,6,6,0,0,1-2.79-1.79,11.3,11.3,0,0,1-2.47-5.05,23.44,23.44,0,0,1-.54-5.24A48.2,48.2,0,0,1,259.73,349.57Zm.29.06a26.59,26.59,0,0,0-.07,9.9,23.21,23.21,0,0,0,1.32,4.62,10.71,10.71,0,0,0,2.25,3.73,3,3,0,0,0,1.39.86,2.3,2.3,0,0,0,1.37-.19,6.94,6.94,0,0,0,2.59-3,21.92,21.92,0,0,0,2.2-9.13,35.72,35.72,0,0,0-.95-9.69,43.83,43.83,0,0,0-3.24-9.3q-.25-.57-.54-1.11l-.28-.55-.14-.28a1.13,1.13,0,0,0-.12-.18c-.17-.24-.32-.31-.45-.3a.9.9,0,0,0-.55.48,40.31,40.31,0,0,0-2,4.51A60.32,60.32,0,0,0,260,349.63Z"/><path class="cls-1" d="M433.36,329.49c1.72-7.79,3.33-12.07,4.36-14.25.56-1.2,1.61-1.29,2.25-.21a44.3,44.3,0,0,1,5.23,14.33c2.06,11.43-1.76,20.88-6.37,20.88S430.89,340.69,433.36,329.49Z"/><path class="cls-2" d="M433.21,329.46c.8-3.26,1.55-6.53,2.45-9.78a37.94,37.94,0,0,1,1.64-4.85,2,2,0,0,1,1.28-1.13,1.76,1.76,0,0,1,1.73.67,3.43,3.43,0,0,1,.24.33l.17.27.34.55c.22.36.43.73.64,1.11a45.4,45.4,0,0,1,3.79,9.5A37.73,37.73,0,0,1,447,336.35,25.57,25.57,0,0,1,445,346.74l-.3.63-.36.61-.37.61-.45.59a7.5,7.5,0,0,1-2.38,2.05,5.36,5.36,0,0,1-3.52.41,6.23,6.23,0,0,1-2.8-1.79,11.49,11.49,0,0,1-2.47-5.06,24,24,0,0,1-.54-5.24A48.2,48.2,0,0,1,433.21,329.46Zm.3.06a26.8,26.8,0,0,0-.08,9.9,23.21,23.21,0,0,0,1.32,4.62,10.61,10.61,0,0,0,2.25,3.73,3.26,3.26,0,0,0,1.39.87,2.39,2.39,0,0,0,1.37-.2,6.76,6.76,0,0,0,2.59-3,21.88,21.88,0,0,0,2.2-9.13,35.72,35.72,0,0,0-.95-9.69,44,44,0,0,0-3.24-9.3c-.17-.37-.35-.74-.53-1.11l-.28-.55-.15-.27a1.6,1.6,0,0,0-.11-.19c-.17-.24-.33-.31-.45-.3a.88.88,0,0,0-.55.48,38.57,38.57,0,0,0-2,4.51A59.58,59.58,0,0,0,433.51,329.52Z"/><path class="cls-1" d="M64,411.28c2.3-7.8,4.46-12.07,5.83-14.25a1.76,1.76,0,0,1,3-.21,38.25,38.25,0,0,1,7,14.33C82.56,422.58,77.44,432,71.28,432S60.66,422.47,64,411.28Z"/><path class="cls-2" d="M63.82,411.23c1.07-3.39,2.16-6.78,3.47-10.11.33-.84.68-1.66,1.07-2.48.19-.41.39-.81.6-1.21l.33-.6a2.73,2.73,0,0,1,.47-.65,2.31,2.31,0,0,1,1.57-.72,2.36,2.36,0,0,1,1.66.6,3.81,3.81,0,0,1,.53.57l.43.53c.29.35.56.71.83,1.08a39.19,39.19,0,0,1,5.08,9.62,36.15,36.15,0,0,1,1.45,5.31,27.77,27.77,0,0,1,.41,5.55,22.1,22.1,0,0,1-.84,5.57,17,17,0,0,1-2.46,5.26,9.94,9.94,0,0,1-5,3.7,7.44,7.44,0,0,1-6.36-1,10.69,10.69,0,0,1-3.67-4.77,16.83,16.83,0,0,1-1.16-5.53,25.55,25.55,0,0,1,.32-5.47A35.93,35.93,0,0,1,63.82,411.23Zm.28.09a21.2,21.2,0,0,0-.24,10.4,15.54,15.54,0,0,0,1.81,4.66,9.49,9.49,0,0,0,3.06,3.35c2.4,1.53,5.41.51,7.33-2a16.56,16.56,0,0,0,3.26-9.14,25.5,25.5,0,0,0-.16-5.09,34.16,34.16,0,0,0-1.15-5,37.3,37.3,0,0,0-4.47-9.39c-.23-.37-.47-.73-.72-1.09a8.82,8.82,0,0,0-.71-1,1.08,1.08,0,0,0-1.57,0,5.08,5.08,0,0,0-.71.95c-.24.36-.47.74-.69,1.11-.45.76-.87,1.54-1.27,2.33A54,54,0,0,0,64.1,411.32Z"/><path class="cls-3" d="M5.05,273.57C-4.84,230.64-4,171.13,52.56,134.4c7.7-5,7.55-23.21,11.16-31.53C70.62,87,88.85,60.76,135.58,51.29a46.83,46.83,0,0,0,25.76-14.7c19.1-21.53,65.25-59.66,124.25-13.15a47.11,47.11,0,0,0,40.61,8.8c28.75-7.23,76-8.81,86.34,54.16a45.71,45.71,0,0,0,22.6,32.44c34.33,19.42,95.16,69.35,50.21,164.19a46.65,46.65,0,0,1-42.3,26.28H50.65C28.77,309.31,9.86,294.45,5.05,273.57Z"/><path class="cls-4" d="M4.81,273.62A179.11,179.11,0,0,1,0,231.53a127.29,127.29,0,0,1,7.16-41.69A106.32,106.32,0,0,1,29,153.65a118.4,118.4,0,0,1,15.72-14.3c1.42-1.06,2.85-2.11,4.31-3.12.72-.52,1.46-1,2.2-1.5l1.1-.74a10.37,10.37,0,0,0,1-.77,13,13,0,0,0,2.94-4.13A30.79,30.79,0,0,0,58,124.2c1-3.36,1.6-6.83,2.25-10.3a70.19,70.19,0,0,1,2.5-10.4A76.28,76.28,0,0,1,73.61,85.11,85.26,85.26,0,0,1,88.9,70.21,98.9,98.9,0,0,1,107.26,59.3a125.33,125.33,0,0,1,20.11-7.16c1.73-.43,3.45-.9,5.19-1.27s3.48-.75,5.13-1.17A46.28,46.28,0,0,0,147.35,46a45,45,0,0,0,8.58-5.75,41.88,41.88,0,0,0,3.73-3.57c1.15-1.24,2.35-2.64,3.57-3.92a125.46,125.46,0,0,1,15.85-14.35C190.44,9.81,203.69,3.25,218,1A73,73,0,0,1,239.48.66a82.73,82.73,0,0,1,20.73,5.77A107.11,107.11,0,0,1,279,16.77c1.48,1,2.93,2,4.37,3.1s2.87,2.21,4.23,3.19a46,46,0,0,0,8.86,5.13,45.54,45.54,0,0,0,20,3.82,47.54,47.54,0,0,0,10.14-1.52c3.47-.86,7-1.58,10.53-2.13a93.19,93.19,0,0,1,21.51-1,62.33,62.33,0,0,1,21.06,5.22,51.61,51.61,0,0,1,17.47,13,64.54,64.54,0,0,1,11.22,18.57,100.75,100.75,0,0,1,5.8,20.76c.15.9.31,1.75.48,2.57s.35,1.66.56,2.48.46,1.63.71,2.44.55,1.6.85,2.39a43.8,43.8,0,0,0,19.62,22.53,170.61,170.61,0,0,1,18,11.69,135.34,135.34,0,0,1,30.14,30.52A104.37,104.37,0,0,1,501.55,199a114.37,114.37,0,0,1,0,43,170.05,170.05,0,0,1-13.35,40.78,48,48,0,0,1-5.6,9.59,48.62,48.62,0,0,1-7.7,8.07,49.75,49.75,0,0,1-19.79,10,50.73,50.73,0,0,1-11.05,1.46l-10.65,0H412.2l-84.82-.1L285,311.64l-42.41-.26-84.81-.73-84.82-.72-21.2-.12A48.86,48.86,0,0,1,31,305.47,47.2,47.2,0,0,1,14.14,292.6,46,46,0,0,1,4.81,273.62Zm.49-.11a45.25,45.25,0,0,0,9.33,18.68,46.59,46.59,0,0,0,16.65,12.58,47.28,47.28,0,0,0,20.45,4.05l21.2-.13,84.82-.71,84.81-.74L285,307l42.41-.16,84.82-.1H444a44.87,44.87,0,0,0,27.73-10.17,43.38,43.38,0,0,0,6.93-7.21,41.25,41.25,0,0,0,2.78-4.16,46.46,46.46,0,0,0,2.31-4.51,165.65,165.65,0,0,0,13.19-39.54,109.45,109.45,0,0,0,.26-41.29A99.8,99.8,0,0,0,481,161.93,131.14,131.14,0,0,0,452,132.2a166.29,166.29,0,0,0-17.49-11.5,47.65,47.65,0,0,1-16.13-14.8,48.79,48.79,0,0,1-5.09-9.77c-.31-.87-.65-1.72-.9-2.61s-.56-1.75-.76-2.65-.45-1.79-.6-2.69-.35-1.81-.49-2.65a96.88,96.88,0,0,0-5.49-20,61.08,61.08,0,0,0-10.51-17.61A48.2,48.2,0,0,0,378.24,35.7a59,59,0,0,0-19.88-5,89.77,89.77,0,0,0-20.76.88c-3.44.52-6.86,1.21-10.25,2a51.37,51.37,0,0,1-10.8,1.57A48.64,48.64,0,0,1,295.24,31a49.17,49.17,0,0,1-9.43-5.51c-1.5-1.09-2.8-2.15-4.21-3.21s-2.82-2.07-4.26-3.05A104.43,104.43,0,0,0,259.09,9.09a79.75,79.75,0,0,0-20-5.66,70.53,70.53,0,0,0-20.72.18c-13.74,2.16-26.64,8.44-37.79,16.82A125.5,125.5,0,0,0,165,34.4c-1.23,1.27-2.33,2.55-3.59,3.89a43.47,43.47,0,0,1-4,3.72,47.65,47.65,0,0,1-9,6,48.94,48.94,0,0,1-10.14,3.79c-1.77.43-3.5.77-5.21,1.15s-3.41.8-5.12,1.2A122.63,122.63,0,0,0,108.05,61,98.16,98.16,0,0,0,89.93,71.58,83.73,83.73,0,0,0,74.78,86.05,74.81,74.81,0,0,0,64,104a69.37,69.37,0,0,0-2.54,10.17c-.69,3.46-1.37,7-2.38,10.38a33.36,33.36,0,0,1-1.92,5,14.3,14.3,0,0,1-3.2,4.42,11.72,11.72,0,0,1-1.11.86l-1.1.72c-.74.49-1.48,1-2.2,1.48-1.45,1-2.88,2-4.29,3.07a117.3,117.3,0,0,0-15.71,14.08A105,105,0,0,0,7.64,190,126.74,126.74,0,0,0,.51,231.53,178.24,178.24,0,0,0,5.3,273.51Z"/></g></g></svg>