<svg xmlns="http://www.w3.org/2000/svg" viewBox="0 0 503.62 445.8"><defs><style>.cls-1{fill:#bac8ca;}.cls-2{fill:#325761;}.cls-3{fill:#fff;}.cls-4{fill:#9fa0a0;}</style></defs><g id="圖層_2" data-name="圖層 2"><g id="圖層_8" data-name="圖層 8"><path class="cls-1" d="M5.05,273.57C-4.84,230.64-4,171.13,52.56,134.4c7.7-5,7.55-23.21,11.17-31.53C70.62,87,88.86,60.76,135.59,51.29a46.83,46.83,0,0,0,25.76-14.7c19.1-21.53,65.25-59.66,124.25-13.15a47.14,47.14,0,0,0,40.62,8.8c28.75-7.23,76-8.81,86.34,54.16a45.75,45.75,0,0,0,22.61,32.44c34.33,19.42,95.16,69.35,50.21,164.19-7.62,16.08-24.19,26.28-42.3,26.28H50.66C28.78,309.31,9.86,294.45,5.05,273.57Z"/><path class="cls-2" d="M4.81,273.62A178.58,178.58,0,0,1,0,231.53a127.25,127.25,0,0,1,7.16-41.69A106.62,106.62,0,0,1,29,153.64a118.4,118.4,0,0,1,15.73-14.29c1.42-1.06,2.84-2.12,4.3-3.13.72-.51,1.47-1,2.2-1.49L52.3,134a9.06,9.06,0,0,0,1-.78,13.17,13.17,0,0,0,2.94-4.13A32.35,32.35,0,0,0,58,124.2c1-3.36,1.59-6.83,2.25-10.3a71.11,71.11,0,0,1,2.49-10.4A76.38,76.38,0,0,1,73.62,85.1,85.2,85.2,0,0,1,88.91,70.21,98.43,98.43,0,0,1,107.28,59.3a124.64,124.64,0,0,1,20.11-7.16c1.72-.43,3.44-.91,5.18-1.27s3.48-.75,5.14-1.17A46.5,46.5,0,0,0,147.37,46a45.86,45.86,0,0,0,8.57-5.75,41.94,41.94,0,0,0,3.73-3.57c1.16-1.24,2.36-2.64,3.57-3.92A125.54,125.54,0,0,1,179.1,18.42C190.46,9.81,203.71,3.25,218,1A72.61,72.61,0,0,1,239.5.67a82.29,82.29,0,0,1,20.73,5.76A107.11,107.11,0,0,1,279,16.77c1.48,1,2.93,2,4.37,3.1s2.87,2.21,4.23,3.19a46,46,0,0,0,8.86,5.13,45.54,45.54,0,0,0,20,3.82,47.45,47.45,0,0,0,10.14-1.52c3.48-.86,7-1.59,10.53-2.14a93.83,93.83,0,0,1,21.52-1,62.21,62.21,0,0,1,21.05,5.22,51.55,51.55,0,0,1,17.48,13A65.12,65.12,0,0,1,408.4,64.13a100.82,100.82,0,0,1,5.79,20.77c.16.9.32,1.74.48,2.56s.36,1.66.57,2.48.45,1.63.71,2.44.55,1.6.85,2.39a43.7,43.7,0,0,0,19.62,22.53,169.12,169.12,0,0,1,18,11.7,135.09,135.09,0,0,1,30.14,30.51A104.05,104.05,0,0,1,501.58,199a114.42,114.42,0,0,1,0,43,171.09,171.09,0,0,1-13.35,40.78,48.18,48.18,0,0,1-13.31,17.66,50,50,0,0,1-30.84,11.42l-10.65,0h-21.2l-84.83-.1L285,311.64l-42.41-.26-84.82-.73-84.82-.72-21.2-.12A48.92,48.92,0,0,1,31,305.47,47.29,47.29,0,0,1,14.14,292.6,46,46,0,0,1,4.81,273.62Zm.49-.11a45.37,45.37,0,0,0,9.33,18.68,46.59,46.59,0,0,0,16.65,12.58,47.28,47.28,0,0,0,20.45,4.05l21.2-.13,84.82-.71,84.82-.74L285,307l42.41-.16,84.83-.1H444a45,45,0,0,0,27.74-10.16,43.38,43.38,0,0,0,6.92-7.22,40.11,40.11,0,0,0,2.79-4.15,46.46,46.46,0,0,0,2.31-4.51,165.79,165.79,0,0,0,13.19-39.54,109.5,109.5,0,0,0,.26-41.3A99.76,99.76,0,0,0,481,161.94,130.73,130.73,0,0,0,452,132.21a164.81,164.81,0,0,0-17.49-11.51,47.59,47.59,0,0,1-21.22-24.57c-.32-.86-.66-1.72-.91-2.61s-.55-1.75-.75-2.65-.45-1.78-.61-2.69-.34-1.81-.48-2.65a97.5,97.5,0,0,0-5.49-20,61.19,61.19,0,0,0-10.52-17.6,48,48,0,0,0-16.25-12.2,59,59,0,0,0-19.88-5,89.66,89.66,0,0,0-20.75.88c-3.45.52-6.87,1.21-10.26,2a51.37,51.37,0,0,1-10.8,1.57A48.67,48.67,0,0,1,295.26,31a49,49,0,0,1-9.42-5.5c-1.51-1.1-2.81-2.16-4.22-3.22s-2.82-2.07-4.26-3.05A104.43,104.43,0,0,0,259.11,9.09a79.75,79.75,0,0,0-20-5.66,70.53,70.53,0,0,0-20.72.18c-13.75,2.16-26.64,8.44-37.79,16.81a125.68,125.68,0,0,0-15.65,14c-1.23,1.28-2.33,2.56-3.59,3.89a44.9,44.9,0,0,1-4,3.73,47.72,47.72,0,0,1-9,6,48.47,48.47,0,0,1-10.13,3.78c-1.77.44-3.51.78-5.21,1.15s-3.42.81-5.12,1.21A123.67,123.67,0,0,0,108.06,61,98.21,98.21,0,0,0,89.94,71.58,83.68,83.68,0,0,0,74.79,86,75.21,75.21,0,0,0,64,104a68.13,68.13,0,0,0-2.54,10.17c-.7,3.47-1.37,7-2.39,10.39a33.31,33.31,0,0,1-1.91,5A14.17,14.17,0,0,1,53.94,134a10.19,10.19,0,0,1-1.11.85l-1.1.73c-.73.49-1.47,1-2.19,1.47-1.46,1-2.88,2-4.3,3.07a118,118,0,0,0-15.71,14.09A105,105,0,0,0,7.64,190,126.7,126.7,0,0,0,.51,231.53,178.24,178.24,0,0,0,5.3,273.51Z"/><circle class="cls-3" cx="144.8" cy="332.98" r="13.37"/><path class="cls-4" d="M131.28,333a14.81,14.81,0,0,1,3.84-9.68,13.8,13.8,0,0,1,4.35-3.19,14.1,14.1,0,0,1,5.33-1.25,14.28,14.28,0,0,1,10.15,4A14.47,14.47,0,0,1,159.37,333a14.51,14.51,0,0,1-8.85,13.8,14.25,14.25,0,0,1-5.72,1.07,13.61,13.61,0,0,1-5.59-1.36,14.17,14.17,0,0,1-4.43-3.49A15.19,15.19,0,0,1,131.28,333Zm.3,0a11.81,11.81,0,0,0,4.33,8.89,13.44,13.44,0,0,0,8.89,3,12.79,12.79,0,0,0,8.41-3.46A11.93,11.93,0,0,0,157,333a12.31,12.31,0,0,0-3.4-8.76,12.58,12.58,0,0,0-8.77-3.86,13.18,13.18,0,0,0-9.23,3.39A12.23,12.23,0,0,0,131.58,333Z"/><circle class="cls-3" cx="290.13" cy="385.47" r="13.37"/><path class="cls-4" d="M276.61,385.47a14.74,14.74,0,0,1,3.85-9.67,13.75,13.75,0,0,1,4.34-3.2,13.84,13.84,0,0,1,15.48,2.73,14.54,14.54,0,0,1,4.43,10.14,14.53,14.53,0,0,1-8.86,13.8,14.22,14.22,0,0,1-5.72,1.07,13.61,13.61,0,0,1-5.59-1.36,14.29,14.29,0,0,1-4.43-3.48A15.32,15.32,0,0,1,276.61,385.47Zm.3,0a11.82,11.82,0,0,0,4.34,8.89,13.39,13.39,0,0,0,8.88,3,12.74,12.74,0,0,0,8.41-3.46,12,12,0,0,0,3.77-8.41,12.32,12.32,0,0,0-3.41-8.76,12.57,12.57,0,0,0-8.77-3.86,13.21,13.21,0,0,0-9.23,3.39A12.23,12.23,0,0,0,276.91,385.47Z"/><circle class="cls-3" cx="203.05" cy="388.8" r="21.48"/><path class="cls-4" d="M181.42,388.8a22.79,22.79,0,0,1,6.22-15.41,21.71,21.71,0,0,1,7-4.95,22,22,0,0,1,8.43-1.87,22.36,22.36,0,0,1,15.88,6.35,22.6,22.6,0,0,1,6.8,15.88,22.64,22.64,0,0,1-13.86,21.28,22.45,22.45,0,0,1-8.82,1.7,21.82,21.82,0,0,1-8.69-2,22.1,22.1,0,0,1-7.06-5.24A23.32,23.32,0,0,1,181.42,388.8Zm.3,0a19.84,19.84,0,0,0,6.71,14.62,21.54,21.54,0,0,0,14.62,5.36,20.88,20.88,0,0,0,14.14-5.85,20,20,0,0,0,6.14-14.13,20.42,20.42,0,0,0-5.78-14.5,20.68,20.68,0,0,0-14.5-6.23,21.25,21.25,0,0,0-15,5.76,21,21,0,0,0-4.74,6.8A20.62,20.62,0,0,0,181.72,388.8Z"/><circle class="cls-3" cx="338.22" cy="332.98" r="19.8"/><path class="cls-4" d="M318.27,333A21.12,21.12,0,0,1,324,318.76a20.06,20.06,0,0,1,6.43-4.59,20.26,20.26,0,0,1,22.48,4.12A21,21,0,0,1,359.22,333a21.34,21.34,0,0,1-6,15,21,21,0,0,1-6.88,4.68,20.63,20.63,0,0,1-8.17,1.57,19.93,19.93,0,0,1-8.05-1.86,20.53,20.53,0,0,1-6.52-4.87A21.68,21.68,0,0,1,318.27,333Zm.3,0a18.17,18.17,0,0,0,6.22,13.43,19.84,19.84,0,0,0,13.43,4.87,19.16,19.16,0,0,0,12.95-5.35A18.37,18.37,0,0,0,356.82,333a18.78,18.78,0,0,0-5.29-13.31,19,19,0,0,0-13.31-5.74,19.62,19.62,0,0,0-13.78,5.28,19.27,19.27,0,0,0-4.37,6.25A18.88,18.88,0,0,0,318.57,333Z"/><circle class="cls-3" cx="371.55" cy="424.56" r="19.74"/><path class="cls-4" d="M351.66,424.56a21.06,21.06,0,0,1,5.71-14.19,20,20,0,0,1,6.41-4.57,20.18,20.18,0,0,1,22.42,4.11,20.9,20.9,0,0,1,6.3,14.65,21.3,21.3,0,0,1-5.94,15,21.06,21.06,0,0,1-6.85,4.67,20.79,20.79,0,0,1-8.16,1.56,20,20,0,0,1-8-1.85,20.45,20.45,0,0,1-6.49-4.87A21.55,21.55,0,0,1,351.66,424.56Zm.3,0a18.11,18.11,0,0,0,6.2,13.39,19.79,19.79,0,0,0,13.39,4.85,19.09,19.09,0,0,0,12.91-5.33,18.35,18.35,0,0,0,5.64-12.91,18.7,18.7,0,0,0-5.28-13.28,18.93,18.93,0,0,0-13.27-5.72,19.53,19.53,0,0,0-13.73,5.26,19.23,19.23,0,0,0-4.37,6.24A18.74,18.74,0,0,0,352,424.56Z"/><circle class="cls-3" cx="426.96" cy="378.32" r="17.42"/><path class="cls-4" d="M409.39,378.32a18.72,18.72,0,0,1,5-12.55,17.83,17.83,0,0,1,5.66-4.07A17.87,17.87,0,0,1,440,365.31a18.55,18.55,0,0,1,5.62,13,18.6,18.6,0,0,1-11.36,17.54,18.33,18.33,0,0,1-7.27,1.38,17.71,17.71,0,0,1-7.14-1.67,18.48,18.48,0,0,1-5.75-4.36A19.3,19.3,0,0,1,409.39,378.32Zm.3,0a15.81,15.81,0,0,0,5.52,11.75A17.43,17.43,0,0,0,427,394.24a16.75,16.75,0,0,0,11.27-4.65,16,16,0,0,0,5-11.27,16.32,16.32,0,0,0-4.6-11.63A16.56,16.56,0,0,0,427,361.64a17.22,17.22,0,0,0-12.1,4.58,16.86,16.86,0,0,0-3.86,5.49A16.29,16.29,0,0,0,409.69,378.32Z"/><circle class="cls-3" cx="89.58" cy="404.81" r="19.13"/><path class="cls-4" d="M70.3,404.81a20.48,20.48,0,0,1,5.53-13.75,19.29,19.29,0,0,1,6.22-4.44,19.83,19.83,0,0,1,7.53-1.69,20.11,20.11,0,0,1,14.22,5.66,20.32,20.32,0,0,1,6.12,14.22A20.3,20.3,0,0,1,97.5,423.93a19.93,19.93,0,0,1-7.92,1.51,19.4,19.4,0,0,1-7.8-1.8,20,20,0,0,1-6.29-4.73A21,21,0,0,1,70.3,404.81Zm.3,0a17.46,17.46,0,0,0,6,13,19.11,19.11,0,0,0,13,4.67,18.47,18.47,0,0,0,12.48-5.15,17.69,17.69,0,0,0,5.46-12.48,18.11,18.11,0,0,0-5.1-12.84,18.31,18.31,0,0,0-12.84-5.54,18.89,18.89,0,0,0-13.3,5.08,18.6,18.6,0,0,0-4.24,6A18.1,18.1,0,0,0,70.6,404.81Z"/></g></g></svg>